<?xml version="1.0" encoding="utf-8"?>
<svg id="Layer_1" enable-background="new 0 0 512.268 512.268" height="512" viewBox="0 0 512.268 512.268" width="512" xmlns="http://www.w3.org/2000/svg">
  <path d="M 463.535 326.195 L 461.998 327.746 L 459.233 278.254 L 479.645 257.648 C 485.468 251.77 485.435 242.273 479.571 236.435 C 473.708 230.598 464.234 230.629 458.41 236.509 L 456.981 237.952 L 451.915 147.294 C 461.736 137.043 510.032 92.395 512.262 46.778 C 512.45 33.778 507.921 22.235 499.165 13.396 C 490.383 4.531 478.883 -0.072 465.957 0.132 C 420.437 2.223 375.78 51.945 366.304 61.019 L 276.442 55.902 L 278.116 54.212 C 283.939 48.334 283.906 38.837 278.042 32.999 C 272.179 27.162 262.705 27.193 256.881 33.073 L 236.519 53.63 L 187.49 50.838 L 189.271 49.04 C 195.094 43.162 195.061 33.665 189.197 27.827 C 183.334 21.99 173.86 22.021 168.036 27.901 L 147.567 48.565 L 68.265 44.049 C 60.967 43.585 52.314 49.838 52.455 59.261 L 53.277 111.54 C 53.36 116.835 56.223 121.694 60.808 124.324 L 215.637 213.111 C 195.421 230.937 153.214 286.095 135.777 307.305 L 49.015 262.884 C 43.22 259.917 36.177 261.045 31.592 265.673 L 4.346 293.179 C -1.448 299.029 -1.448 308.469 4.346 314.319 L 72.73 383.35 C 26.006 430.539 89.803 487.652 131.806 442.985 L 195.926 507.711 C 198.735 510.547 202.557 512.142 206.543 512.142 C 210.529 512.142 214.351 510.547 217.16 507.711 L 244.407 480.207 C 248.87 475.702 250.02 468.868 247.279 463.144 L 207.387 379.857 C 229.645 361.495 282.756 320.724 301.128 299.507 L 388.967 455.595 C 391.578 460.235 396.448 463.138 401.76 463.223 L 453.549 464.053 C 460.908 464.225 469.221 457.619 468.728 448.216 L 464.248 368.048 L 484.767 347.335 C 490.59 341.457 490.557 331.959 484.693 326.122 C 478.833 320.286 469.358 320.316 463.535 326.195 Z" style="fill: rgb(65, 164, 245);"/>
</svg>