<?xml version="1.0" encoding="utf-8"?>
<svg version="1.1" id="Capa_1" x="0px" y="0px" viewBox="0 0 512 512" style="enable-background:new 0 0 512 512;" xmlns="http://www.w3.org/2000/svg">
  <g>
    <g>
      <path d="M508.998,93.39c-5.356-19.132-17.614-38.975-34.515-55.874c-16.898-16.9-36.741-29.157-55.874-34.514 c-22.136-6.198-41.215-2.73-53.712,9.769L12.771,364.896C0.272,377.394-3.196,396.47,3.002,418.609 c5.357,19.132,17.615,38.975,34.515,55.874c16.899,16.9,36.742,29.157,55.874,34.515c7.175,2.009,14.027,3.003,20.438,3.003 c13.372,0,24.827-4.324,33.274-12.77L277.21,369.123l82.179,82.179l18.382-73.53l73.531-18.382l-82.179-82.179l130.107-130.107 C511.728,134.606,515.197,115.53,508.998,93.39z M267.656,336.255L157.183,446.73c-0.108-0.407-0.195-0.806-0.31-1.215 c-5.357-19.132-17.615-38.975-34.515-55.874c-16.899-16.9-36.742-29.157-55.874-34.515c-0.408-0.114-0.808-0.202-1.215-0.31 l110.474-110.473c4.433-4.433,13.333-5.196,24.414-2.094c14.046,3.933,29.628,13.715,42.753,26.839 c13.123,13.123,22.906,28.706,26.84,42.753C272.852,322.923,272.089,331.822,267.656,336.255z M478.02,125.893L370.587,233.326 c-0.108-0.407-0.195-0.806-0.31-1.215c-5.356-19.132-17.614-38.975-34.515-55.874c-16.899-16.9-36.742-29.157-55.875-34.515 c-0.408-0.114-0.808-0.202-1.214-0.31L386.107,33.98c4.434-4.432,13.329-5.195,24.414-2.093 c14.046,3.932,29.628,13.715,42.753,26.839c13.123,13.123,22.906,28.706,26.839,42.752 C483.215,112.56,482.453,121.459,478.02,125.893z" style="fill: rgb(65, 164, 245);"/>
    </g>
  </g>
  <g/>
  <g/>
  <g/>
  <g/>
  <g/>
  <g/>
  <g/>
  <g/>
  <g/>
  <g/>
  <g/>
  <g/>
  <g/>
  <g/>
  <g/>
</svg>