<?xml version="1.0" encoding="utf-8"?>
<svg id="Capa_1" enable-background="new 0 0 512 512" height="512" viewBox="0 0 512 512" width="512" xmlns="http://www.w3.org/2000/svg">
  <g>
    <path d="m13.217 434.978 114.776-114.776c16.78 25.301 38.516 47.037 63.817 63.816l-114.777 114.776c-8.797 8.797-20.353 13.195-31.908 13.195s-23.111-4.398-31.908-13.195c-8.524-8.523-13.217-19.855-13.217-31.908s4.693-23.386 13.217-31.908z" style="fill: rgb(65, 164, 245);"/>
    <path d="m316.25 391.511c107.937 0 195.75-87.813 195.75-195.75s-87.813-195.75-195.75-195.75-195.75 87.813-195.75 195.75 87.813 195.75 195.75 195.75zm-135.5-195.75c0-74.715 60.785-135.5 135.5-135.5s135.5 60.785 135.5 135.5-60.785 135.5-135.5 135.5-135.5-60.785-135.5-135.5z" style="fill: rgb(65, 164, 245);"/>
    <circle cx="316.25" cy="195.761" r="105.5" style="fill: rgb(65, 164, 245);"/>
  </g>
</svg>