<?xml version="1.0" encoding="utf-8"?>
<svg version="1.1" id="Capa_1" x="0px" y="0px" viewBox="0 0 434.467 434.467" style="enable-background:new 0 0 434.467 434.467;" xmlns="http://www.w3.org/2000/svg">
  <path d="M 367.704 414.465 L 349.51 414.465 L 349.51 372.185 C 349.51 366.662 345.033 362.185 339.51 362.185 L 306.661 362.185 L 306.661 327.588 C 327.209 314.31 344.464 296.268 356.774 275.098 C 370.464 251.557 377.7 224.643 377.7 197.265 C 377.7 169.937 370.489 143.065 356.846 119.555 C 345.414 99.854 329.696 82.852 311.029 69.87 L 315.566 63.39 L 317.706 64.889 C 319.452 66.112 321.452 66.699 323.433 66.699 C 326.585 66.699 329.688 65.212 331.633 62.434 C 334.801 57.91 333.701 51.674 329.177 48.507 L 318.904 41.314 C 318.884 41.3 318.867 41.284 318.847 41.27 L 272.824 9.043 C 272.81 9.033 272.795 9.026 272.781 9.016 L 262.49 1.81 C 257.966 -1.359 251.73 -0.258 248.563 4.266 C 245.395 8.79 246.495 15.025 251.019 18.193 L 253.16 19.692 L 233.636 47.575 L 231.495 46.076 C 226.971 42.908 220.736 44.007 217.568 48.532 C 214.4 53.056 215.5 59.291 220.024 62.459 L 222.165 63.958 L 160.863 151.505 C 159.342 153.677 158.746 156.365 159.206 158.977 C 159.666 161.589 161.146 163.911 163.318 165.432 L 209.343 197.66 C 211.035 198.845 213.04 199.469 215.079 199.469 C 215.657 199.469 216.238 199.419 216.815 199.317 C 219.427 198.857 221.749 197.377 223.27 195.205 L 269.878 128.642 C 292.319 144.102 305.941 169.659 305.941 197.266 C 305.941 214.72 300.669 231.228 290.677 245.313 L 248.305 245.313 C 242.782 245.313 238.305 249.79 238.305 255.313 L 238.305 279.089 C 233.163 280.067 227.919 280.573 222.634 280.573 C 196.292 280.573 172.243 268.485 156.669 248.194 L 210.82 248.194 C 216.343 248.194 220.82 243.717 220.82 238.194 C 220.82 232.671 216.343 228.194 210.82 228.194 L 138.766 228.194 L 83.428 228.194 L 66.763 228.194 C 61.24 228.194 56.763 232.671 56.763 238.194 C 56.763 243.717 61.24 248.194 66.763 248.194 L 76.147 248.194 C 86.122 276.794 104.644 302.366 128.891 320.795 C 156.037 341.427 188.452 352.333 222.634 352.333 C 227.869 352.333 233.108 352.061 238.305 351.539 L 238.305 362.185 L 105.76 362.185 C 100.237 362.185 95.76 366.662 95.76 372.185 L 95.76 414.465 L 77.566 414.465 C 72.043 414.465 67.566 418.942 67.566 424.465 C 67.566 429.988 72.043 434.465 77.566 434.465 L 105.712 434.465 C 105.728 434.465 105.744 434.467 105.76 434.467 L 339.511 434.467 C 339.527 434.467 339.543 434.465 339.559 434.465 L 367.705 434.465 C 373.228 434.465 377.705 429.988 377.705 424.465 C 377.705 418.942 373.227 414.465 367.704 414.465 Z" style="fill: rgb(65, 164, 245);"/>
  <g/>
  <g/>
  <g/>
  <g/>
  <g/>
  <g/>
  <g/>
  <g/>
  <g/>
  <g/>
  <g/>
  <g/>
  <g/>
  <g/>
  <g/>
</svg>